<svg width="27" height="27" viewBox="0 0 27 27" fill="none" xmlns="http://www.w3.org/2000/svg">
<path fill-rule="evenodd" clip-rule="evenodd" d="M24.75 13.5C24.75 19.7132 19.7132 24.75 13.5 24.75C7.28679 24.75 2.25 19.7132 2.25 13.5C2.25 7.28679 7.28679 2.25 13.5 2.25C19.7132 2.25 24.75 7.28679 24.75 13.5ZM16.875 10.125C16.875 11.989 15.364 13.5 13.5 13.5C11.636 13.5 10.125 11.989 10.125 10.125C10.125 8.26104 11.636 6.75 13.5 6.75C15.364 6.75 16.875 8.26104 16.875 10.125ZM13.5 23.0625C15.507 23.0625 17.3697 22.4442 18.9078 21.3876C19.5872 20.921 19.8774 20.032 19.4825 19.3086C18.6638 17.8091 16.9765 16.875 13.4999 16.875C10.0234 16.875 8.33622 17.809 7.51741 19.3086C7.12243 20.032 7.41274 20.9208 8.09208 21.3875C9.6302 22.4441 11.4929 23.0625 13.5 23.0625Z" fill="#5C5C5C"/>
</svg>
