<svg width="18" height="17" viewBox="0 0 18 17" fill="none" xmlns="http://www.w3.org/2000/svg">
<path fill-rule="evenodd" clip-rule="evenodd" d="M3.4793 2.72822C4.98959 1.49538 6.87972 0.822709 8.8293 0.824221C10.3472 0.824221 11.8311 1.27433 13.0932 2.11762C14.3553 2.96092 15.339 4.15953 15.92 5.56189C16.5009 6.96426 16.653 8.50739 16.3569 9.99617C16.0608 11.4849 15.33 12.8525 14.2567 13.9259C13.1834 14.9993 11.816 15.7304 10.3272 16.0266C8.83849 16.3229 7.29533 16.171 5.89289 15.5903C4.49045 15.0095 3.29171 14.026 2.44825 12.764C1.60479 11.5019 1.15449 10.0182 1.1543 8.50022V7.70022H2.7543V8.50022C2.75449 9.7017 3.11096 10.8761 3.7786 11.875C4.44625 12.8739 5.39511 13.6524 6.50519 14.1121C7.61527 14.5717 8.83671 14.6919 10.0151 14.4574C11.1935 14.2229 12.2758 13.6442 13.1253 12.7945C13.9748 11.9449 14.5533 10.8624 14.7876 9.68403C15.022 8.50562 14.9016 7.28419 14.4418 6.17419C13.9819 5.06419 13.2033 4.11546 12.2043 3.44797C11.2053 2.78049 10.0308 2.42422 8.8293 2.42422H8.8283C7.24723 2.42239 5.71422 2.96755 4.4893 3.96722L3.8693 4.47322L2.8583 3.23322L3.4793 2.72822Z" fill="black"/>
<path fill-rule="evenodd" clip-rule="evenodd" d="M3.48731 0.653809L5.03931 1.04181L4.51031 3.15781L6.62631 3.68681L6.23831 5.23881L2.57031 4.32181L3.48731 0.653809Z" fill="black"/>
</svg>
