<svg width="24" height="24" viewBox="0 0 24 24" fill="none" xmlns="http://www.w3.org/2000/svg">
<path d="M13.962 16.3058C12.916 16.9321 11.7192 17.2619 10.5 17.2598C9.6134 17.261 8.7353 17.0869 7.91618 16.7477C7.09707 16.4084 6.35308 15.9105 5.72701 15.2828C5.09924 14.6567 4.6014 13.9127 4.26212 13.0936C3.92284 12.2745 3.7488 11.3964 3.75001 10.5098C3.75001 8.64577 4.50501 6.95877 5.72701 5.73677C6.35308 5.109 7.09707 4.61117 7.91618 4.27188C8.7353 3.9326 9.6134 3.75856 10.5 3.75977C12.364 3.75977 14.051 4.51477 15.273 5.73677C15.9008 6.36285 16.3986 7.10683 16.7379 7.92595C17.0772 8.74507 17.2512 9.62317 17.25 10.5098C17.2517 11.7072 16.9338 12.8833 16.329 13.9168C15.812 14.7988 15.895 15.9048 16.618 16.6278L20.471 20.4808" stroke="#111111" stroke-width="1.5"/>
</svg>
