<svg width="24" height="24" viewBox="0 0 24 24" fill="none" xmlns="http://www.w3.org/2000/svg">
<path fill-rule="evenodd" clip-rule="evenodd" d="M18.8494 6.45041C19.2088 6.09113 19.2088 5.50862 18.8494 5.14934C18.4902 4.79006 17.9076 4.79006 17.5484 5.14934L11.9989 10.6988L6.44945 5.14934C6.09016 4.79006 5.50765 4.79006 5.14837 5.14934C4.78909 5.50862 4.78909 6.09113 5.14837 6.45041L10.6978 11.9999L5.14837 17.5493C4.78909 17.9087 4.78909 18.4911 5.14837 18.8505C5.50765 19.2097 6.09016 19.2097 6.44945 18.8505L11.9989 13.301L17.5484 18.8505C17.9076 19.2097 18.4902 19.2097 18.8494 18.8505C19.2088 18.4911 19.2088 17.9087 18.8494 17.5493L13.3 11.9999L18.8494 6.45041Z" fill="black"/>
</svg>
