<svg width="67" height="16" viewBox="0 0 67 16" fill="none" xmlns="http://www.w3.org/2000/svg">
<path d="M0.264205 0.454545H4.05682L8.0625 10.2273H8.23295L12.2386 0.454545H16.0312V15H13.0483V5.53267H12.9276L9.16335 14.929H7.1321L3.3679 5.49716H3.24716V15H0.264205V0.454545ZM31.6315 7.72727C31.6315 9.31345 31.3308 10.6629 30.7295 11.7756C30.1329 12.8883 29.3185 13.7382 28.2863 14.3253C27.2588 14.9077 26.1035 15.1989 24.8204 15.1989C23.5278 15.1989 22.3677 14.9053 21.3403 14.3182C20.3128 13.7311 19.5008 12.8812 18.9042 11.7685C18.3076 10.6558 18.0093 9.30871 18.0093 7.72727C18.0093 6.1411 18.3076 4.79167 18.9042 3.67898C19.5008 2.56629 20.3128 1.71875 21.3403 1.13636C22.3677 0.549242 23.5278 0.255681 24.8204 0.255681C26.1035 0.255681 27.2588 0.549242 28.2863 1.13636C29.3185 1.71875 30.1329 2.56629 30.7295 3.67898C31.3308 4.79167 31.6315 6.1411 31.6315 7.72727ZM28.5136 7.72727C28.5136 6.69981 28.3597 5.83333 28.0519 5.12784C27.7489 4.42235 27.3204 3.88731 26.7664 3.52273C26.2124 3.15814 25.5638 2.97585 24.8204 2.97585C24.077 2.97585 23.4283 3.15814 22.8744 3.52273C22.3204 3.88731 21.8895 4.42235 21.5817 5.12784C21.2787 5.83333 21.1272 6.69981 21.1272 7.72727C21.1272 8.75473 21.2787 9.62121 21.5817 10.3267C21.8895 11.0322 22.3204 11.5672 22.8744 11.9318C23.4283 12.2964 24.077 12.4787 24.8204 12.4787C25.5638 12.4787 26.2124 12.2964 26.7664 11.9318C27.3204 11.5672 27.7489 11.0322 28.0519 10.3267C28.3597 9.62121 28.5136 8.75473 28.5136 7.72727ZM33.6095 15V0.454545H36.6848V12.4645H42.9206V15H33.6095ZM44.6572 15V0.454545H47.7325V12.4645H53.9683V15H44.6572ZM52.9971 0.454545H56.4417L59.7585 6.71875H59.9005L63.2173 0.454545H66.6619L61.3565 9.85795V15H58.3025V9.85795L52.9971 0.454545Z" fill="black"/>
</svg>
