<svg width="60" height="60" viewBox="0 0 60 60" fill="none" xmlns="http://www.w3.org/2000/svg">
<path d="M22.7422 24.9627L27.9066 36.0788H28.9153L34.1 24.551C34.2008 24.3245 34.2614 24.3451 34.2614 24.5921V36.9022C34.2614 37.5609 33.8579 37.7256 33.2527 37.7256V38.1373H37.2874V37.7256C36.6822 37.7256 36.2787 37.5609 36.2787 36.9022V24.9627C36.2787 24.3039 36.6822 24.1392 37.2874 24.1392V23.7275H34.0596L29.4398 33.9791C29.339 34.2055 29.2179 34.2055 29.0969 33.9791L24.3762 23.7275H21.1484V24.1392C21.7536 24.1392 22.1571 24.3039 22.1571 24.9627V36.9022C22.1571 37.5609 21.7536 37.7256 21.1484 37.7256V38.1373H23.5693V37.7256C22.9641 37.7256 22.5606 37.5609 22.5606 36.9022V25.0038C22.5606 24.7568 22.6211 24.7362 22.7422 24.9627Z" fill="black"/>
<path d="M4.734 38.3571L4.95 45.7714L10.731 48.9459L15 56.4827H24.465L30.873 60L36.462 56.4827H45L49.734 48.1255L55.926 44.2286L55.731 37.5367L60 30L55.266 21.6429L55.05 14.2286L49.269 11.0571L45 3.51735H35.535L29.127 0L23.541 3.51735H15L10.266 11.8714L4.074 15.7714L4.269 22.4602L0 30L4.734 38.3571ZM59.487 30L55.704 36.6765L55.296 22.5949L59.487 30ZM6.111 45.0398L5.982 40.5582L9.6 46.9561L6.111 45.0398ZM15.255 56.0204L11.475 49.3439L23.643 56.0204H15.255ZM30.834 58.598L26.961 56.4735H34.2L30.834 58.598ZM44.745 56.0204H37.179L48.936 48.6184L44.745 56.0204ZM54.723 43.5582L50.979 45.9184L54.6 39.5235L54.723 43.5582ZM53.889 14.951L54.021 19.4327L50.4 13.0439L53.889 14.951ZM44.745 3.97959L48.528 10.6561L36.357 3.97959H44.745ZM29.166 1.39286L33.039 3.51735H25.8L29.166 1.39286ZM15.255 3.97959H22.821L11.064 11.3724L15.255 3.97959ZM25.074 3.97959H33.864L49.653 12.6429L54.048 20.4031L54.579 38.6755L50.184 46.4357L34.929 56.0204H26.136L10.347 47.3571L5.952 39.6061L5.421 21.3337L9.816 13.5735L25.074 3.97959ZM9.018 14.0816L5.4 20.4735L5.283 16.4327L9.018 14.0816ZM4.296 23.3204L4.704 37.402L0.513 30L4.296 23.3204Z" fill="black"/>
</svg>
