<svg width="146" height="137" viewBox="0 0 146 137" fill="none" xmlns="http://www.w3.org/2000/svg">
<path d="M55.3382 56.9955L67.9023 82.3773H70.3562L82.9695 56.0554C83.2149 55.5384 83.3621 55.5854 83.3621 56.1494V84.2575C83.3621 85.7616 82.3805 86.1376 80.9082 86.1376V87.0777H90.7239V86.1376C89.2515 86.1376 88.27 85.7616 88.27 84.2575V56.9955C88.27 55.4914 89.2515 55.1154 90.7239 55.1154V54.1753H82.8713L71.6323 77.583C71.3869 78.1 71.0924 78.1 70.7979 77.583L59.3135 54.1753H51.4609V55.1154C52.9333 55.1154 53.9149 55.4914 53.9149 56.9955V84.2575C53.9149 85.7616 52.9333 86.1376 51.4609 86.1376V87.0777H57.3504V86.1376C55.878 86.1376 54.8964 85.7616 54.8964 84.2575V57.0895C54.8964 56.5255 55.0437 56.4785 55.3382 56.9955Z" fill="black"/>
<path d="M11.5169 87.5821L12.0424 104.511L26.1064 111.76L36.4921 128.969H59.5186L75.108 137L88.7049 128.969H109.476L120.993 109.887L136.057 100.989L135.583 85.7089L145.968 68.5L134.451 49.4179L133.926 32.4886L119.862 25.2471L109.476 8.03128H86.4497L70.8603 0L57.2706 8.03128H36.4921L24.9752 27.1064L9.91124 36.0114L10.3856 51.2841L0 68.5L11.5169 87.5821ZM144.72 68.5L135.517 83.7447L134.524 51.5917L144.72 68.5ZM14.8669 102.841L14.553 92.6078L23.3549 107.216L14.8669 102.841ZM37.1124 127.913L27.9164 112.669L57.5188 127.913H37.1124ZM75.0131 133.799L65.5908 128.948H83.2019L75.0131 133.799ZM108.856 127.913H90.4492L119.052 111.012L108.856 127.913ZM133.13 99.4578L124.022 104.847L132.831 90.2453L133.13 99.4578ZM131.101 34.1382L131.423 44.3712L122.613 29.7835L131.101 34.1382ZM108.856 9.08673L118.059 24.3315L88.4495 9.08673H108.856ZM70.9552 3.18036L80.3774 8.03128H62.7663L70.9552 3.18036ZM37.1124 9.08673H55.519L26.9165 25.9671L37.1124 9.08673ZM61.0001 9.08673H82.3845L120.796 28.8679L131.488 46.587L132.78 88.3091L122.088 106.028L84.9754 127.913H63.5838L25.1722 108.132L14.4801 90.434L13.1882 48.7119L23.8804 30.9928L61.0001 9.08673ZM21.939 32.1531L13.1371 46.7478L12.8525 37.5212L21.939 32.1531ZM10.4513 53.2483L11.4439 85.4013L1.24803 68.5L10.4513 53.2483Z" fill="black"/>
</svg>
